<svg width="1282" height="250" viewBox="0 0 1282 250" fill="none" xmlns="http://www.w3.org/2000/svg">
<path d="M728.041 163.6L728.244 164.129L795.543 144.492L795.508 144.145L785.621 135.555L728.068 163.586L728.063 163.589L728.041 163.6ZM731.316 162.641L785.532 136.231L794.657 144.156L731.316 162.641Z" fill="white"/>
<path d="M726.561 164.027L728.172 164.142L798.024 169.133L797.271 161.651L796.7 161.666L797.391 168.518L729.767 163.687L741.918 160.142L794.986 144.653L795.267 147.45L795.825 147.31L795.507 144.145L795.303 143.969L731.316 162.641L728.068 163.586L728.063 163.589L726.561 164.027Z" fill="white"/>
<path d="M726.561 164.027L728.172 164.142L796.758 162.236L797.329 162.219L817.575 161.657L798.23 146.127L795.769 146.739L795.211 146.878L741.918 160.142L741.882 160.149L728.068 163.586L728.063 163.589L726.561 164.027ZM730.782 163.499L795.269 147.45L795.827 147.31L798.095 146.747L816.007 161.129L797.271 161.651L796.7 161.666L730.782 163.499Z" fill="white"/>
<path d="M797.875 168.94C798.004 168.94 798.133 168.886 798.223 168.779C799.198 167.637 800.222 166.497 801.267 165.391C801.441 165.207 801.432 164.917 801.249 164.744C801.065 164.57 800.775 164.579 800.601 164.762C799.546 165.879 798.512 167.03 797.527 168.185C797.363 168.376 797.385 168.666 797.578 168.83C797.664 168.904 797.77 168.94 797.875 168.94Z" fill="white"/>
<path d="M914.384 169.496C911.538 169.184 908.573 168.228 905.571 166.657C905.348 166.539 905.26 166.263 905.379 166.039C905.496 165.815 905.773 165.729 905.996 165.846C908.897 167.365 911.752 168.287 914.484 168.586C914.735 168.614 914.916 168.84 914.889 169.091C914.863 169.325 914.665 169.499 914.434 169.499C914.417 169.499 914.401 169.499 914.384 169.496ZM922.907 167.726C922.794 167.5 922.885 167.224 923.112 167.111C925.928 165.706 928.149 163.561 929.365 161.073C929.475 160.846 929.75 160.752 929.977 160.863C930.204 160.974 930.299 161.249 930.187 161.476C928.883 164.143 926.516 166.435 923.521 167.931C923.455 167.964 923.386 167.979 923.317 167.979C923.149 167.979 922.987 167.887 922.907 167.726ZM1105.99 166.358C1105.99 166.106 1106.19 165.898 1106.44 165.894C1109.51 165.851 1112.57 165.683 1115.53 165.395C1115.78 165.37 1116 165.554 1116.03 165.806C1116.05 166.057 1115.87 166.281 1115.62 166.306C1112.63 166.598 1109.55 166.767 1106.45 166.81H1106.45C1106.2 166.81 1105.99 166.609 1105.99 166.358ZM1097.28 166.584C1094.3 166.4 1091.23 166.104 1088.15 165.702C1087.9 165.669 1087.72 165.44 1087.76 165.189C1087.79 164.939 1088.02 164.763 1088.27 164.794C1091.33 165.192 1094.38 165.486 1097.34 165.669C1097.59 165.685 1097.78 165.903 1097.77 166.155C1097.75 166.398 1097.55 166.584 1097.31 166.584C1097.3 166.584 1097.29 166.584 1097.28 166.584ZM1079.1 164.243C1076.18 163.684 1073.17 163.025 1070.14 162.281C1069.9 162.22 1069.75 161.972 1069.81 161.727C1069.87 161.481 1070.12 161.331 1070.36 161.391C1073.37 162.132 1076.37 162.788 1079.27 163.343C1079.52 163.391 1079.68 163.631 1079.63 163.879C1079.59 164.099 1079.4 164.251 1079.18 164.251C1079.16 164.251 1079.13 164.248 1079.1 164.242V164.243ZM897.939 161.479L897.543 161.15C895.179 159.175 893.084 157.133 891.313 155.078C891.148 154.887 891.169 154.598 891.361 154.433C891.552 154.268 891.841 154.289 892.006 154.481C893.744 156.497 895.805 158.504 898.129 160.447L898.52 160.772C898.715 160.932 898.744 161.221 898.583 161.416C898.493 161.526 898.362 161.583 898.23 161.583C898.127 161.583 898.024 161.549 897.939 161.479ZM1061.3 159.886C1058.46 159.048 1055.52 158.119 1052.56 157.121C1052.32 157.04 1052.19 156.78 1052.27 156.541C1052.36 156.301 1052.62 156.173 1052.86 156.253C1055.8 157.247 1058.73 158.173 1061.56 159.007C1061.8 159.078 1061.94 159.333 1061.87 159.576C1061.81 159.775 1061.63 159.904 1061.43 159.904C1061.38 159.904 1061.34 159.897 1061.3 159.884V159.886ZM807.182 159.047C807.016 158.857 807.035 158.568 807.225 158.401C809.495 156.42 811.911 154.497 814.409 152.684C814.613 152.536 814.9 152.581 815.048 152.785C815.196 152.99 815.151 153.276 814.946 153.424C812.471 155.221 810.076 157.126 807.827 159.09C807.741 159.166 807.633 159.203 807.527 159.203C807.399 159.203 807.272 159.15 807.182 159.046V159.047ZM1043.94 154.044C1041.18 153.01 1038.31 151.888 1035.41 150.707C1035.18 150.611 1035.06 150.345 1035.16 150.11C1035.25 149.876 1035.52 149.764 1035.76 149.859C1038.65 151.037 1041.51 152.156 1044.26 153.187C1044.49 153.275 1044.61 153.539 1044.53 153.776C1044.46 153.96 1044.28 154.073 1044.1 154.073C1044.04 154.073 1043.99 154.063 1043.94 154.044ZM929.481 152.601C928.842 151.057 927.859 149.454 926.473 147.702C925.813 146.866 925.109 146.047 924.381 145.267C924.208 145.082 924.218 144.792 924.403 144.619C924.588 144.447 924.878 144.456 925.051 144.642C925.796 145.44 926.517 146.279 927.192 147.134C928.63 148.953 929.655 150.627 930.327 152.251C930.424 152.484 930.312 152.752 930.079 152.848C930.022 152.872 929.963 152.883 929.905 152.883C929.725 152.883 929.554 152.777 929.482 152.6L929.481 152.601ZM821.904 148.241C821.773 148.025 821.842 147.744 822.058 147.613C824.634 146.054 827.336 144.56 830.088 143.173C830.314 143.059 830.59 143.151 830.703 143.375C830.816 143.601 830.726 143.876 830.5 143.99C827.769 145.366 825.088 146.848 822.532 148.396C822.458 148.44 822.377 148.462 822.296 148.462C822.141 148.462 821.99 148.383 821.904 148.241ZM886.184 147.394C884.804 144.501 884.014 141.553 883.839 138.63L883.828 138.437C883.815 138.185 884.009 137.97 884.262 137.957C884.515 137.946 884.729 138.138 884.742 138.39L884.752 138.575C884.922 141.379 885.681 144.214 887.01 146.998C887.119 147.226 887.022 147.5 886.794 147.609C886.73 147.639 886.663 147.653 886.597 147.653C886.425 147.653 886.261 147.558 886.184 147.392V147.394ZM1026.97 147.158C1024.42 146.052 1021.68 144.846 1018.6 143.471C1018.37 143.368 1018.27 143.098 1018.37 142.866C1018.47 142.635 1018.74 142.532 1018.97 142.635C1022.05 144.008 1024.78 145.213 1027.34 146.317C1027.57 146.417 1027.68 146.686 1027.58 146.919C1027.5 147.091 1027.33 147.194 1027.16 147.194C1027.1 147.194 1027.03 147.183 1026.97 147.157V147.158ZM838.181 139.945C838.084 139.712 838.195 139.444 838.428 139.347C841.215 138.187 844.104 137.101 847.013 136.117C847.253 136.036 847.513 136.165 847.594 136.404C847.675 136.644 847.546 136.904 847.306 136.985C844.416 137.961 841.547 139.041 838.779 140.192C838.722 140.216 838.662 140.227 838.603 140.227C838.425 140.227 838.254 140.121 838.181 139.945ZM1010.26 139.713L1007.69 138.547C1005.77 137.676 1003.85 136.806 1001.93 135.938C1001.7 135.833 1001.6 135.563 1001.7 135.332C1001.81 135.102 1002.08 135 1002.31 135.103C1004.23 135.971 1006.15 136.842 1008.07 137.712L1010.64 138.878C1010.87 138.983 1010.97 139.254 1010.87 139.484C1010.79 139.653 1010.62 139.752 1010.45 139.752C1010.39 139.752 1010.32 139.74 1010.26 139.711V139.713ZM917.523 139.406C915.103 137.758 912.432 136.305 909.583 135.088C909.351 134.989 909.242 134.719 909.342 134.487C909.441 134.255 909.711 134.147 909.943 134.247C912.846 135.486 915.57 136.969 918.039 138.65C918.248 138.793 918.302 139.077 918.159 139.286C918.071 139.416 917.927 139.486 917.78 139.486C917.692 139.486 917.601 139.461 917.522 139.406H917.523ZM855.47 134.027C855.405 133.783 855.55 133.532 855.794 133.467C858.725 132.685 861.73 131.985 864.727 131.384C864.975 131.334 865.216 131.495 865.266 131.743C865.316 131.991 865.155 132.232 864.907 132.282C861.928 132.878 858.942 133.575 856.03 134.352C855.991 134.363 855.952 134.368 855.912 134.368C855.71 134.368 855.525 134.233 855.47 134.028V134.027ZM900.983 132.238C898.137 131.536 895.129 131.013 892.042 130.683C891.791 130.657 891.609 130.431 891.635 130.18C891.662 129.928 891.888 129.746 892.139 129.773C895.267 130.108 898.316 130.639 901.202 131.349C901.448 131.41 901.597 131.658 901.537 131.903C901.486 132.111 901.299 132.251 901.093 132.251C901.057 132.251 901.02 132.247 900.983 132.237V132.238ZM993.59 132.203C990.564 130.864 987.822 129.675 985.209 128.566C984.976 128.467 984.868 128.199 984.966 127.965C985.065 127.733 985.334 127.624 985.567 127.723C988.185 128.833 990.93 130.025 993.96 131.365C994.191 131.467 994.295 131.738 994.193 131.969C994.117 132.14 993.95 132.241 993.775 132.241C993.713 132.241 993.65 132.229 993.589 132.202L993.59 132.203ZM873.385 130.418C873.356 130.167 873.536 129.94 873.788 129.911C876.853 129.559 879.938 129.365 882.957 129.336C883.213 129.325 883.417 129.536 883.419 129.79C883.421 130.042 883.219 130.25 882.965 130.252C879.978 130.281 876.926 130.471 873.892 130.821C873.874 130.823 873.857 130.824 873.839 130.824C873.61 130.824 873.412 130.651 873.385 130.418ZM885.653 129.902C885.419 129.808 885.304 129.542 885.398 129.306C886.509 126.522 888.158 123.881 890.301 121.458C890.468 121.268 890.758 121.25 890.947 121.418C891.137 121.585 891.155 121.875 890.987 122.065C888.914 124.409 887.32 126.96 886.249 129.646C886.177 129.825 886.005 129.935 885.824 129.935C885.767 129.935 885.71 129.924 885.654 129.902H885.653ZM976.767 125.085C973.837 123.917 970.969 122.817 968.243 121.82C968.006 121.732 967.884 121.47 967.971 121.233C968.058 120.995 968.321 120.874 968.557 120.96C971.293 121.961 974.169 123.063 977.107 124.235C977.341 124.329 977.456 124.595 977.362 124.83C977.291 125.009 977.119 125.119 976.938 125.119C976.881 125.119 976.824 125.108 976.768 125.086L976.767 125.085ZM959.62 118.833C956.663 117.871 953.726 116.981 950.89 116.191C950.646 116.123 950.504 115.871 950.571 115.628C950.639 115.384 950.892 115.242 951.135 115.31C953.983 116.103 956.933 116.995 959.902 117.962C960.143 118.041 960.274 118.299 960.196 118.54C960.134 118.733 959.954 118.856 959.761 118.856C959.714 118.856 959.666 118.848 959.619 118.833H959.62ZM897.233 116.142C897.1 115.927 897.167 115.645 897.382 115.512C898.921 114.561 900.533 113.744 902.177 113.085C903.36 112.61 904.597 112.185 905.853 111.823C906.095 111.753 906.349 111.893 906.419 112.136C906.489 112.379 906.349 112.632 906.106 112.702C904.88 113.056 903.673 113.47 902.518 113.934C900.923 114.574 899.357 115.367 897.863 116.29C897.789 116.337 897.704 116.358 897.622 116.358C897.469 116.358 897.319 116.282 897.233 116.141V116.142ZM942.048 113.96C939.627 113.415 937.195 112.924 934.824 112.501C934.253 112.399 933.679 112.301 933.105 112.206C932.856 112.165 932.686 111.929 932.728 111.68C932.769 111.431 933.005 111.262 933.254 111.303C933.833 111.398 934.41 111.497 934.986 111.6C937.372 112.025 939.816 112.519 942.251 113.068C942.498 113.123 942.652 113.368 942.597 113.615C942.549 113.828 942.36 113.972 942.151 113.972C942.118 113.972 942.083 113.969 942.049 113.96H942.048ZM914.511 110.714C914.49 110.462 914.679 110.242 914.931 110.222C917.797 109.999 920.879 109.995 924.133 110.215C924.385 110.232 924.576 110.45 924.559 110.702C924.541 110.955 924.323 111.147 924.071 111.128C920.861 110.912 917.824 110.914 915.002 111.135C914.99 111.135 914.977 111.136 914.965 111.136C914.729 111.136 914.529 110.954 914.51 110.714H914.511Z" fill="white"/>
<path d="M1124.68 165.007C1124.71 165.007 1124.74 165.004 1124.77 164.998C1126.27 164.713 1127.79 164.389 1129.27 164.036C1129.51 163.977 1129.66 163.73 1129.61 163.484C1129.55 163.238 1129.3 163.087 1129.05 163.145C1127.59 163.496 1126.09 163.816 1124.6 164.1C1124.35 164.146 1124.19 164.386 1124.24 164.634C1124.28 164.854 1124.47 165.007 1124.68 165.007H1124.68Z" fill="white"/>
<path d="M1237.4 136.345H1251.37L1251.37 248H1237.4V136.345Z" fill="white"/>
<path d="M1205.4 142.994H1281.85V147.883L1274.8 148.911L1281.85 149.946V164.5L1279.8 166.246L1281.85 167.999V172.88H1205.4L1188.15 157.941L1205.4 142.994Z" fill="white"/>
<path d="M1243.42 145.276C1243.42 145.798 1243.85 146.221 1244.39 146.221C1244.92 146.221 1245.35 145.798 1245.35 145.276C1245.35 144.755 1244.92 144.332 1244.39 144.332C1243.85 144.332 1243.42 144.755 1243.42 145.276Z" fill="white"/>
<path d="M1243.81 145.156H1244.97C1245.03 145.156 1245.08 145.208 1245.08 145.269C1245.08 145.329 1245.03 145.382 1244.97 145.382H1243.81C1243.75 145.382 1243.69 145.329 1243.69 145.269C1243.69 145.208 1243.75 145.156 1243.81 145.156Z" fill="white"/>
<path d="M1244.5 144.71V145.843C1244.5 145.904 1244.45 145.957 1244.39 145.957C1244.33 145.957 1244.27 145.904 1244.27 145.843V144.71C1244.27 144.642 1244.33 144.596 1244.39 144.596C1244.45 144.596 1244.5 144.649 1244.5 144.71Z" fill="white"/>
<path d="M1243.42 170.606C1243.42 171.127 1243.85 171.551 1244.39 171.551C1244.92 171.551 1245.35 171.127 1245.35 170.606C1245.35 170.085 1244.92 169.661 1244.39 169.661C1243.85 169.661 1243.42 170.085 1243.42 170.606Z" fill="white"/>
<path d="M1243.81 170.485H1244.97C1245.03 170.485 1245.08 170.538 1245.08 170.598C1245.08 170.659 1245.03 170.712 1244.97 170.712H1243.81C1243.75 170.712 1243.69 170.659 1243.69 170.598C1243.69 170.538 1243.75 170.485 1243.81 170.485Z" fill="white"/>
<path d="M1244.5 170.032V171.165C1244.5 171.226 1244.45 171.279 1244.39 171.279C1244.33 171.279 1244.27 171.226 1244.27 171.165V170.032C1244.27 169.971 1244.33 169.918 1244.39 169.918C1244.45 169.918 1244.5 169.971 1244.5 170.032Z" fill="white"/>
<path d="M1251.37 241.388C1255.09 241.388 1258.12 244.35 1258.12 248H1244.62C1244.62 244.35 1247.64 241.388 1251.37 241.388H1251.37Z" fill="white"/>
<path d="M20.1079 180.523V252.554H56.1238V180.523H20.1079ZM21.6853 233.429H54.5465V236.978H21.6853V233.429ZM21.6853 231.852V228.303H54.5465V231.852H21.6853ZM21.6853 226.725V208.455H54.5465V226.725H21.6853ZM21.6853 206.877V203.328H54.5465V206.877H21.6853ZM21.6853 201.751V198.202H54.5465V201.751H21.6853ZM21.6853 196.625V185.642H54.5465V196.625H21.6853ZM54.5465 182.1V184.065H21.6853V182.1H54.5465ZM21.6853 250.977V238.555H54.5465V250.977H21.6853Z" fill="white"/>
<path d="M76.5635 227.645V209.638H54.6122V252.489H98.3833V227.645H76.5635ZM56.1895 250.911V211.215H61.3159V250.911H56.1895ZM62.8932 250.911V211.215H68.2824V250.911H62.8932ZM96.806 250.911H69.8598V211.215H74.9861V229.223H96.806V250.911Z" fill="white"/>
<path d="M93.9812 235.929H76.4977V237.506H93.9812V235.929Z" fill="white"/>
<path d="M93.9812 242.764H76.4977V244.342H93.9812V242.764Z" fill="white"/>
<path d="M126.775 190.71V128.536H101.275V190.71H96.806V252.489H131.244V190.71H126.775ZM102.852 130.113H125.198V190.71H119.283V134.32H108.767V190.71H102.852V130.113ZM117.706 190.71H110.345V135.897H117.706V190.71ZM129.667 250.911H98.3833V192.287H129.667V250.911Z" fill="white"/>
<path d="M112.185 195.704H100.618V197.282H112.185V195.704Z" fill="white"/>
<path d="M127.433 195.704H115.865V197.282H127.433V195.704Z" fill="white"/>
<path d="M100.618 203.723V205.3H127.433V203.723H100.618Z" fill="white"/>
<path d="M112.185 211.741H100.618V213.318H112.185V211.741Z" fill="white"/>
<path d="M127.433 211.741H115.865V213.318H127.433V211.741Z" fill="white"/>
<path d="M100.618 219.759V221.336H127.433V219.759H100.618Z" fill="white"/>
<path d="M112.185 227.777H100.618V229.354H112.185V227.777Z" fill="white"/>
<path d="M127.433 227.777H115.865V229.354H127.433V227.777Z" fill="white"/>
<path d="M100.618 235.795V237.372H127.433V235.795H100.618Z" fill="white"/>
<path d="M112.185 243.813H100.618V245.391H112.185V243.813Z" fill="white"/>
<path d="M127.433 243.813H115.865V245.391H127.433V243.813Z" fill="white"/>
<path d="M129.667 156.928V252.489H165.42V156.928H129.667ZM131.244 158.506H163.843V159.689H131.244V158.506ZM131.244 183.308H134.717V204.36H131.244V183.308ZM140.446 161.266V181.731H136.295V161.266H140.446ZM146.174 205.936V226.988H142.023V205.936H146.174ZM142.023 204.359V183.307H146.174V204.359H142.023ZM147.751 205.936H151.902V226.988H147.751V205.936ZM147.751 204.359V183.307H151.902V204.359H147.751ZM147.751 181.731V161.266H151.902V181.731H147.751ZM146.174 181.731H142.023V161.266H146.174V181.731ZM140.446 183.308V204.36H136.295V183.308H140.446ZM131.244 205.936H134.717V226.988H131.244V205.936ZM136.296 205.936H140.447V226.988H136.296V205.936ZM140.446 228.566V250.911H136.295V228.566H140.446ZM142.023 228.566H146.174V250.911H142.023V228.566ZM147.751 228.566H151.902V250.911H147.751V228.566ZM153.48 228.566H157.631V250.911H153.48V228.566ZM153.48 226.988V205.936H157.631V226.988H153.48ZM159.208 205.936H163.844V226.988H159.208V205.936ZM159.208 204.359V183.307H163.844V204.359H159.208ZM157.631 204.359H153.48V183.307H157.631V204.359ZM153.48 181.731V161.266H157.631V181.731H153.48ZM134.719 161.266V181.731H131.246V161.266H134.719ZM131.244 228.566H134.717V250.911H131.244V228.566ZM159.208 250.911V228.566H163.844V250.911H159.208ZM163.843 181.731H159.207V161.266H163.843V181.731Z" fill="white"/>
<path d="M175.139 223.176H168.312V224.754H175.139V223.176Z" fill="white"/>
<path d="M175.139 230.012H168.312V231.589H175.139V230.012Z" fill="white"/>
<path d="M175.139 236.847H168.312V238.424H175.139V236.847Z" fill="white"/>
<path d="M175.139 243.682H168.312V245.259H175.139V243.682Z" fill="white"/>
<path d="M211.159 215.947V132.217H204.854V112.237H200.384V95.2832L191.841 83.7161V70.4376H190.263V83.7161L181.719 95.2832V112.237H177.25V132.217H170.937V215.947H163.843V252.489H218.129V215.947H211.159ZM186.846 112.237V96.9723L191.052 91.2781L195.258 96.9723V112.237H194.338V131.165H187.766V112.237H186.846ZM203.276 131.165H200.384V115.979H198.807V131.165H195.915V113.814H203.276V131.165ZM183.297 95.8038L191.052 85.3039L198.807 95.8038V112.237H196.835V96.4518L191.052 88.6216L185.268 96.4518V112.237H183.297V95.8038ZM178.827 113.814H186.188V131.165H183.297V115.979H181.719V131.165H178.827V113.814ZM172.514 133.794H209.582V215.947H205.774V139.709H176.322V215.947H172.514V133.794ZM187.371 141.286V250.911H183.218V141.286H187.371ZM188.949 141.286H193.102V250.911H188.949V141.286ZM194.681 141.286H198.835V250.911H194.681V141.286ZM177.907 250.911H165.42V217.524H177.907V250.911ZM177.9 215.947V141.286H181.64V250.911H179.485V215.947H177.9ZM200.412 250.911V141.286H204.196V215.947H202.488V250.911H200.412ZM216.552 250.911H204.065V217.524H216.552V250.911Z" fill="white"/>
<path d="M213.784 223.176H206.957V224.754H213.784V223.176Z" fill="white"/>
<path d="M213.784 230.012H206.957V231.589H213.784V230.012Z" fill="white"/>
<path d="M213.784 236.847H206.957V238.424H213.784V236.847Z" fill="white"/>
<path d="M213.784 243.682H206.957V245.259H213.784V243.682Z" fill="white"/>
<path d="M246.494 137.474C246.306 134.577 245.091 131.877 243.019 129.806C240.946 127.733 238.247 126.518 235.35 126.33V114.997H233.773V126.328C227.804 126.718 223.017 131.505 222.626 137.474H216.553V252.489H252.569V137.474H246.494ZM234.56 127.879C237.334 127.879 239.94 128.959 241.903 130.921C243.677 132.695 244.727 134.998 244.913 137.474H242.936C242.536 133.204 238.935 129.851 234.561 129.851C230.188 129.851 226.587 133.204 226.187 137.474H224.21C224.615 132.115 229.101 127.879 234.561 127.879H234.56ZM241.349 137.474H227.772C228.165 134.075 231.058 131.428 234.56 131.428C238.062 131.428 240.956 134.075 241.348 137.474H241.349ZM250.991 250.911H218.129V139.052H250.991V250.911Z" fill="white"/>
<path d="M246.916 146.018H222.336V147.596H246.916V146.018Z" fill="white"/>
<path d="M238.766 154.562H222.336V156.14H238.766V154.562Z" fill="white"/>
<path d="M246.916 163.106H222.336V164.683H246.916V163.106Z" fill="white"/>
<path d="M238.766 171.65H222.336V173.227H238.766V171.65Z" fill="white"/>
<path d="M246.916 180.194H222.336V181.771H246.916V180.194Z" fill="white"/>
<path d="M238.766 188.738H222.336V190.315H238.766V188.738Z" fill="white"/>
<path d="M246.916 197.282H222.336V198.859H246.916V197.282Z" fill="white"/>
<path d="M238.766 205.826H222.336V207.403H238.766V205.826Z" fill="white"/>
<path d="M246.916 214.37H222.336V215.947H246.916V214.37Z" fill="white"/>
<path d="M238.766 222.913H222.336V224.491H238.766V222.913Z" fill="white"/>
<path d="M246.916 231.457H222.336V233.035H246.916V231.457Z" fill="white"/>
<path d="M238.766 239.87H222.336V241.447H238.766V239.87Z" fill="white"/>
<path d="M246.916 154.562H242.184V156.14H246.916V154.562Z" fill="white"/>
<path d="M246.916 171.65H242.184V173.227H246.916V171.65Z" fill="white"/>
<path d="M246.916 188.738H242.184V190.315H246.916V188.738Z" fill="white"/>
<path d="M246.916 205.826H242.184V207.403H246.916V205.826Z" fill="white"/>
<path d="M246.916 223.176H242.184V224.754H246.916V223.176Z" fill="white"/>
<path d="M246.916 239.87H242.184V241.447H246.916V239.87Z" fill="white"/>
<path d="M250.991 163.106V252.489H286.875V163.106H250.991ZM252.568 164.683H285.298V166.655H252.568V164.683ZM264.661 168.232V250.911H259.276V168.232H264.661ZM266.238 168.232H271.624V250.911H266.238V168.232ZM273.201 168.232H278.586V250.911H273.201V168.232ZM252.568 168.232H257.698V250.911H252.568V168.232ZM285.298 250.911H280.163V168.232H285.298V250.911Z" fill="white"/>
<path d="M323.811 224.754V150.619H315.661V139.183H309.928V133.489H308.351V139.183H306.066V122.095H304.489V139.183H298.837V150.619H290.687V224.754H285.298V252.489H329.2V224.754H323.811ZM300.414 140.761H314.084V150.619H300.414V140.761ZM292.264 152.196H322.234V224.754H292.264V152.196ZM327.623 250.911H286.875V226.331H327.623V250.911Z" fill="white"/>
<path d="M323.022 231.983H291.476V233.561H323.022V231.983Z" fill="white"/>
<path d="M323.022 237.898H291.476V239.476H323.022V237.898Z" fill="white"/>
<path d="M323.022 243.813H291.476V245.391H323.022V243.813Z" fill="white"/>
<path d="M301.597 158.374H294.762V159.951H301.597V158.374Z" fill="white"/>
<path d="M310.667 158.374H303.831V159.951H310.667V158.374Z" fill="white"/>
<path d="M319.736 158.374H312.901V159.951H319.736V158.374Z" fill="white"/>
<path d="M294.762 164.946V166.524H319.736V164.946H294.762Z" fill="white"/>
<path d="M301.597 171.519H294.762V173.096H301.597V171.519Z" fill="white"/>
<path d="M310.667 171.519H303.831V173.096H310.667V171.519Z" fill="white"/>
<path d="M319.736 171.519H312.901V173.096H319.736V171.519Z" fill="white"/>
<path d="M294.762 178.091V179.668H319.736V178.091H294.762Z" fill="white"/>
<path d="M301.597 184.663H294.762V186.24H301.597V184.663Z" fill="white"/>
<path d="M310.667 184.663H303.831V186.24H310.667V184.663Z" fill="white"/>
<path d="M319.736 184.663H312.901V186.24H319.736V184.663Z" fill="white"/>
<path d="M294.762 191.235V192.813H319.736V191.235H294.762Z" fill="white"/>
<path d="M301.597 197.808H294.762V199.385H301.597V197.808Z" fill="white"/>
<path d="M310.667 197.808H303.831V199.385H310.667V197.808Z" fill="white"/>
<path d="M319.736 197.808H312.901V199.385H319.736V197.808Z" fill="white"/>
<path d="M294.762 204.38V205.957H319.736V204.38H294.762Z" fill="white"/>
<path d="M301.597 210.952H294.762V212.529H301.597V210.952Z" fill="white"/>
<path d="M310.667 210.952H303.831V212.529H310.667V210.952Z" fill="white"/>
<path d="M319.736 210.952H312.901V212.529H319.736V210.952Z" fill="white"/>
<path d="M294.762 217.524V219.102H319.736V217.524H294.762Z" fill="white"/>
<path d="M358.381 88.4455V110.87L353.807 113.607V104.35H352.229V114.55L327.623 129.272V252.489H359.958V88.4455H358.381ZM358.381 112.708V115.339L329.2 132.798V130.166L358.381 112.708ZM329.2 250.911V134.635L358.381 117.177V250.911H329.2Z" fill="white"/>
<path d="M342.213 138H333.538V139.577H342.213V138Z" fill="white"/>
<path d="M354.043 138H345.368V139.577H354.043V138Z" fill="white"/>
<path d="M354.043 130.245H345.368V131.822H354.043V130.245Z" fill="white"/>
<path d="M342.213 144.967H333.538V146.544H342.213V144.967Z" fill="white"/>
<path d="M354.043 144.967H345.368V146.544H354.043V144.967Z" fill="white"/>
<path d="M342.213 151.933H333.538V153.511H342.213V151.933Z" fill="white"/>
<path d="M354.043 151.933H345.368V153.511H354.043V151.933Z" fill="white"/>
<path d="M342.213 158.9H333.538V160.477H342.213V158.9Z" fill="white"/>
<path d="M354.043 158.9H345.368V160.477H354.043V158.9Z" fill="white"/>
<path d="M342.213 165.866H333.538V167.444H342.213V165.866Z" fill="white"/>
<path d="M354.043 165.866H345.368V167.444H354.043V165.866Z" fill="white"/>
<path d="M342.213 172.833H333.538V174.41H342.213V172.833Z" fill="white"/>
<path d="M354.043 172.833H345.368V174.41H354.043V172.833Z" fill="white"/>
<path d="M342.213 179.8H333.538V181.377H342.213V179.8Z" fill="white"/>
<path d="M354.043 179.8H345.368V181.377H354.043V179.8Z" fill="white"/>
<path d="M342.213 186.766H333.538V188.344H342.213V186.766Z" fill="white"/>
<path d="M354.043 186.766H345.368V188.344H354.043V186.766Z" fill="white"/>
<path d="M342.213 193.733H333.538V195.31H342.213V193.733Z" fill="white"/>
<path d="M354.043 193.733H345.368V195.31H354.043V193.733Z" fill="white"/>
<path d="M342.213 200.699H333.538V202.277H342.213V200.699Z" fill="white"/>
<path d="M354.043 200.699H345.368V202.277H354.043V200.699Z" fill="white"/>
<path d="M342.213 207.666H333.538V209.243H342.213V207.666Z" fill="white"/>
<path d="M354.043 207.666H345.368V209.243H354.043V207.666Z" fill="white"/>
<path d="M342.213 214.632H333.538V216.21H342.213V214.632Z" fill="white"/>
<path d="M354.043 214.632H345.368V216.21H354.043V214.632Z" fill="white"/>
<path d="M342.213 221.599H333.538V223.176H342.213V221.599Z" fill="white"/>
<path d="M354.043 221.599H345.368V223.176H354.043V221.599Z" fill="white"/>
<path d="M342.213 228.566H333.538V230.143H342.213V228.566Z" fill="white"/>
<path d="M354.043 228.566H345.368V230.143H354.043V228.566Z" fill="white"/>
<path d="M342.213 235.532H333.538V237.11H342.213V235.532Z" fill="white"/>
<path d="M354.043 235.532H345.368V237.11H354.043V235.532Z" fill="white"/>
<path d="M342.213 242.499H333.538V244.076H342.213V242.499Z" fill="white"/>
<path d="M354.043 242.499H345.368V244.076H354.043V242.499Z" fill="white"/>
<path d="M412.142 173.622L412.581 172.967L399.392 164.131V163.763H394.66V143.652H376.652V163.763H371.92V164.131L358.731 172.967L359.17 173.622H358.381V252.489H412.931V173.622H412.142ZM403.992 230.043V213.013L407.034 215.05V232.08L403.992 230.043ZM407.035 233.98V250.911H403.994V231.942L407.035 233.98ZM407.035 194.226L403.994 192.188V175.158L407.064 177.215H407.035V194.226ZM399.392 191.004L402.415 193.03V210.059L399.392 208.034V191.004ZM403.992 194.086L407.034 196.124V213.154L403.992 211.116V194.086ZM402.415 174.147V191.131L399.392 189.106V172.076L402.483 174.147H402.415ZM399.392 209.932L402.415 211.958V228.988L399.392 226.962V209.932ZM408.613 216.109L411.355 217.945V234.975L408.613 233.139V216.109ZM408.613 214.211V197.181L411.355 199.017V216.047L408.613 214.211ZM408.613 195.282V178.252L411.355 180.089V197.119L408.613 195.282ZM399.392 170.178V166.029L411.353 174.042V178.191L399.392 170.178ZM378.229 145.23H393.082V163.763H391.637V147.727H379.675V163.763H378.229V145.23ZM381.252 163.763V149.304H384.867V163.763H381.252ZM386.444 149.304H390.059V163.763H386.444V149.304ZM371.92 226.962L368.897 228.988V211.958L371.92 209.932V226.962ZM364.278 232.082V215.052L367.319 213.014V230.044L364.278 232.082ZM367.319 231.942V250.911H364.278V233.98L367.319 231.942ZM359.958 180.089L362.7 178.252V195.282L359.958 197.119V180.089ZM364.278 194.226V177.215H364.249L367.319 175.158V192.188L364.278 194.226ZM367.319 194.086V211.116L364.278 213.154V196.124L367.319 194.086ZM359.958 199.017L362.7 197.181V214.211L359.958 216.047V199.017ZM359.958 217.945L362.7 216.109V233.139L359.958 234.975V217.945ZM371.92 208.034L368.897 210.059V193.03L371.92 191.004V208.034ZM371.92 189.106L368.897 191.131V174.147H368.828L371.92 172.076V189.106ZM371.92 170.178L359.958 178.191V174.042L371.92 166.029V170.178ZM359.958 236.873L362.7 235.037V250.911H359.958V236.873ZM368.897 250.911V230.886L371.92 228.86V250.911H368.897ZM397.814 250.911H373.497V165.341H397.814V250.911ZM399.392 228.86L402.415 230.886V250.911H399.392V228.86ZM408.613 250.911V235.037L411.355 236.873V250.911H408.613Z" fill="white"/>
<path d="M375.732 167.838V248.414H395.58V167.838H375.732ZM377.309 246.836V169.415H379.675V246.836H377.309ZM381.252 246.836V169.415H383.093V246.836H381.252ZM384.67 246.836V169.415H386.642V246.836H384.67ZM388.219 246.836V169.415H390.059V246.836H388.219ZM394.003 169.415V246.836H391.637V169.415H394.003Z" fill="white"/>
<path d="M444.083 195.047V118.152H411.353V252.489H451.97V195.047H444.083ZM412.931 250.911V119.729H442.506V195.047H434.619V197.902H424.629V199.48H434.619V204.555H417.005V206.132H434.619V211.207H424.629V212.784H434.619V217.859H417.005V219.437H434.619V224.512H424.629V226.089H434.619V231.164H417.005V232.742H434.619V237.817H424.629V239.394H434.619V244.469H417.005V246.046H434.619V250.91H412.931V250.911ZM450.392 250.911H436.196V196.625H450.392V250.911Z" fill="white"/>
<path d="M441.717 202.145H440.14V246.442H441.717V202.145Z" fill="white"/>
<path d="M446.449 202.145H444.872V246.442H446.449V202.145Z" fill="white"/>
<path d="M438.431 124.724H417.005V126.302H438.431V124.724Z" fill="white"/>
<path d="M438.431 131.377H424.629V132.954H438.431V131.377Z" fill="white"/>
<path d="M438.431 138.029H417.005V139.606H438.431V138.029Z" fill="white"/>
<path d="M438.431 144.682H424.629V146.259H438.431V144.682Z" fill="white"/>
<path d="M438.431 151.334H417.005V152.911H438.431V151.334Z" fill="white"/>
<path d="M438.431 157.988H424.629V159.565H438.431V157.988Z" fill="white"/>
<path d="M438.431 164.64H417.005V166.217H438.431V164.64Z" fill="white"/>
<path d="M438.431 171.293H424.629V172.87H438.431V171.293Z" fill="white"/>
<path d="M438.431 177.945H417.005V179.522H438.431V177.945Z" fill="white"/>
<path d="M438.431 184.597H424.629V186.175H438.431V184.597Z" fill="white"/>
<path d="M438.431 191.25H417.005V192.827H438.431V191.25Z" fill="white"/>
<path d="M421.177 131.377H417.005V132.954H421.177V131.377Z" fill="white"/>
<path d="M421.177 144.653H417.005V146.23H421.177V144.653Z" fill="white"/>
<path d="M421.177 157.928H417.005V159.506H421.177V157.928Z" fill="white"/>
<path d="M421.177 171.336H417.005V172.913H421.177V171.336Z" fill="white"/>
<path d="M421.177 184.48H417.005V186.058H421.177V184.48Z" fill="white"/>
<path d="M421.177 197.756H417.005V199.334H421.177V197.756Z" fill="white"/>
<path d="M421.177 211.164H417.005V212.741H421.177V211.164Z" fill="white"/>
<path d="M421.177 224.571H417.005V226.148H421.177V224.571Z" fill="white"/>
<path d="M421.177 237.715H417.005V239.293H421.177V237.715Z" fill="white"/>
<path d="M479.573 163.763V159.163H456.439V163.763H450.392V252.489H485.62V163.763H479.573ZM458.016 160.74H477.996V163.763H458.016V160.74ZM458.016 250.911V172.964H477.996V250.911H458.016ZM484.042 250.911H479.573V171.387H456.439V250.911H451.97V165.341H484.042V250.911Z" fill="white"/>
<path d="M466.705 176.908H461.039V178.485H466.705V176.908Z" fill="white"/>
<path d="M474.723 187.029H469.058V188.606H474.723V187.029Z" fill="white"/>
<path d="M474.723 211.215H469.058V212.792H474.723V211.215Z" fill="white"/>
<path d="M474.723 235.664H469.058V237.241H474.723V235.664Z" fill="white"/>
<path d="M466.705 197.939H461.039V199.516H466.705V197.939Z" fill="white"/>
<path d="M466.705 223.045H461.039V224.622H466.705V223.045Z" fill="white"/>
<path d="M536.357 247.362V186.109H518.218V247.362H536.357ZM530.705 187.686H534.78V245.785H530.705V187.686ZM525.447 187.686H529.128V245.785H525.447V187.686ZM519.795 187.686H523.87V245.785H519.795V187.686Z" fill="white"/>
<path d="M497.712 210.032H488.906V211.609H497.712V210.032Z" fill="white"/>
<path d="M503.476 216.998H488.906V218.576H503.476V216.998Z" fill="white"/>
<path d="M497.712 223.965H488.906V225.542H497.712V223.965Z" fill="white"/>
<path d="M503.476 230.932H488.906V232.509H503.476V230.932Z" fill="white"/>
<path d="M497.712 237.898H488.906V239.476H497.712V237.898Z" fill="white"/>
<path d="M503.476 244.865H488.906V246.442H503.476V244.865Z" fill="white"/>
<path d="M503.478 210.032H500.351V211.609H503.478V210.032Z" fill="white"/>
<path d="M503.478 223.965H500.351V225.542H503.478V223.965Z" fill="white"/>
<path d="M503.478 237.898H500.351V239.476H503.478V237.898Z" fill="white"/>
<path d="M515.063 180.983V236.715H508.491V203.46H484.042V252.489H539.512V180.983H515.063ZM537.935 250.911H485.62V205.037H506.914V238.293H516.641V182.56H537.935V250.911Z" fill="white"/>
<path d="M569.876 146.15V136.16H547.924V146.15H537.935V252.489H579.865V146.15H569.876ZM547.924 250.911H539.512V147.727H547.924V250.911ZM554.716 250.911H549.502V152.591H554.716V250.911ZM561.508 250.911H556.293V152.591H561.508V250.911ZM568.298 250.911H563.084V152.591H568.298V250.911ZM568.298 151.013H549.502V147.727H568.298V151.013ZM568.298 146.15H549.502V137.737H568.298V146.15ZM578.288 250.911H569.876V147.727H578.288V250.911Z" fill="white"/>
<path d="M556.659 141.155H552.531V142.732H556.659V141.155Z" fill="white"/>
<path d="M565.275 141.155H558.709V142.732H565.275V141.155Z" fill="white"/>
<path d="M607.206 222.388V167.691L596.822 154.809V141.944H595.245V154.809L584.86 167.691V222.388H578.288V252.489H613.778V222.388H607.206ZM586.438 168.248L596.033 156.345L605.629 168.248V222.388H602.605V171.256H602.62V169.678H589.461V222.388H586.438V168.248ZM591.038 215.815V210.886H601.028V215.815H591.038ZM601.028 217.393V222.388H591.038V217.393H601.028ZM591.038 209.309V204.38H601.028V209.309H591.038ZM591.038 202.802V197.873H601.028V202.802H591.038ZM591.038 196.296V191.367H601.028V196.296H591.038ZM591.038 189.789V184.86H601.028V189.789H591.038ZM591.038 183.283V178.354H601.028V183.283H591.038ZM591.038 176.776V171.256H601.028V176.776H591.038ZM612.201 250.911H579.865V223.965H612.201V250.911Z" fill="white"/>
<path d="M590.25 228.04H583.152V229.617H590.25V228.04Z" fill="white"/>
<path d="M599.582 228.04H592.484V229.617H599.582V228.04Z" fill="white"/>
<path d="M608.915 228.04H601.817V229.617H608.915V228.04Z" fill="white"/>
<path d="M583.152 234.086V235.664H608.915V234.086H583.152Z" fill="white"/>
<path d="M590.25 240.133H583.152V241.71H590.25V240.133Z" fill="white"/>
<path d="M599.582 240.133H592.484V241.71H599.582V240.133Z" fill="white"/>
<path d="M608.915 240.133H601.817V241.71H608.915V240.133Z" fill="white"/>
<path d="M583.152 246.179V247.757H608.915V246.179H583.152Z" fill="white"/>
<path d="M632.969 187.029V167.181H631.392V180.194H626.791V174.082H625.214V180.194H619.036V187.029H612.201V252.489H639.804V187.029H632.969ZM620.613 181.771H631.392V187.029H620.613V181.771ZM620.876 250.911H613.778V235.795H620.876V250.911ZM620.876 234.218H613.778V210.886H620.876V234.218ZM620.876 209.309H613.778V195.704H620.876V209.309ZM629.552 250.911H622.454V235.795H629.552V250.911ZM629.552 234.218H622.454V210.886H629.552V234.218ZM629.552 209.309H622.454V195.704H629.552V209.309ZM638.227 250.911H631.129V235.795H638.227V250.911ZM638.227 234.218H631.129V210.886H638.227V234.218ZM638.227 209.309H631.129V195.704H638.227V209.309ZM638.227 194.127H613.778V188.606H638.227V194.127Z" fill="white"/>
<path d="M624.611 107.459H622.815V105.665H621.238V107.459H619.443V109.036H621.238V110.832H622.815V109.036H624.611V107.459Z" fill="white"/>
<path d="M502.893 166.346H501.097V164.552H499.52V166.346H497.726V167.924H499.52V169.719H501.097V167.924H502.893V166.346Z" fill="white"/>
<path d="M502.893 11.5043H501.097V9.71006H499.52V11.5043H497.726V13.0816H499.52V14.8772H501.097V13.0816H502.893V11.5043Z" fill="white"/>
<path d="M390.245 96.5491H388.449V94.7548H386.872V96.5491H385.077V98.1264H386.872V99.9219H388.449V98.1264H390.245V96.5491Z" fill="white"/>
<path d="M198.992 -5.32065H197.197V-7.11487H195.62V-5.32065H193.825V-3.74331H195.62V-1.94777H197.197V-3.74331H198.992V-5.32065Z" fill="white"/>
<path d="M146.94 114.163H145.145V112.368H143.567V114.163H141.773V115.74H143.567V117.536H145.145V115.74H146.94V114.163Z" fill="white"/>
<path d="M42.4417 61.7162H40.6462V59.922H39.0689V61.7162H37.2746V63.2935H39.0689V65.0891H40.6462V63.2935H42.4417V61.7162Z" fill="white"/>
<path d="M45.4308 170.3H43.2646C40.3715 170.3 38.0186 167.947 38.0186 165.055C38.0186 162.164 40.3715 159.811 43.2633 159.811C43.3355 159.811 43.4092 159.812 43.4815 159.815C43.8732 156.295 46.8662 153.547 50.4901 153.547C53.1663 153.547 55.5941 155.07 56.7823 157.413C57.3817 157.167 58.0245 157.04 58.6804 157.04C60.8874 157.04 62.8144 158.502 63.4571 160.551C63.5912 160.539 63.7253 160.532 63.8593 160.532C66.3528 160.532 68.3824 162.561 68.3824 165.055H66.805C66.805 163.432 65.484 162.11 63.8593 162.11C63.5925 162.11 63.3257 162.147 63.0667 162.219C62.8472 162.281 62.6132 162.243 62.4226 162.119C62.232 161.994 62.1059 161.793 62.0743 161.568C61.8417 159.887 60.3826 158.619 58.6804 158.619C58.0192 158.619 57.3752 158.808 56.8205 159.165C56.618 159.296 56.367 159.327 56.1383 159.25C55.9096 159.172 55.7295 158.995 55.6493 158.767C54.8751 156.589 52.8022 155.126 50.4901 155.126C47.4721 155.126 45.0154 157.581 45.0154 160.601C45.0154 160.627 45.0154 160.652 45.0154 160.678C45.0233 160.922 44.9195 161.155 44.7315 161.312C44.5435 161.468 44.2951 161.529 44.0572 161.476C43.7982 161.42 43.5314 161.389 43.2619 161.389C41.239 161.389 39.5946 163.035 39.5946 165.057C39.5946 167.078 41.2403 168.724 43.2619 168.724H45.4295V170.301L45.4308 170.3Z" fill="white"/>
<path d="M603.19 38.8908H601.023V37.3135H603.189C605.213 37.3135 606.858 35.6678 606.858 33.6462C606.858 31.6245 605.212 29.9788 603.19 29.9788C602.922 29.9788 602.654 30.0078 602.396 30.0656C602.16 30.1182 601.91 30.0577 601.722 29.9026C601.534 29.7475 601.43 29.5135 601.438 29.2704C601.438 29.2441 601.438 29.2178 601.438 29.1915C601.438 26.1735 598.983 23.7168 595.964 23.7168C593.651 23.7168 591.577 25.1798 590.804 27.3578C590.724 27.5852 590.544 27.7627 590.315 27.8402C590.088 27.9178 589.836 27.8876 589.633 27.7561C589.078 27.3986 588.436 27.2093 587.773 27.2093C586.071 27.2093 584.613 28.4777 584.379 30.1589C584.348 30.3837 584.222 30.5848 584.031 30.7097C583.84 30.8346 583.605 30.8714 583.387 30.8109C583.128 30.7386 582.861 30.7018 582.594 30.7018C580.971 30.7018 579.649 32.0228 579.649 33.6475H578.071C578.071 31.154 580.099 29.1245 582.594 29.1245C582.728 29.1245 582.862 29.131 582.996 29.1429C583.638 27.0936 585.566 25.632 587.773 25.632C588.429 25.632 589.072 25.7595 589.671 26.0053C590.859 23.6616 593.287 22.1395 595.964 22.1395C599.587 22.1395 602.58 24.8867 602.972 28.4068C603.044 28.4041 603.118 28.4028 603.19 28.4028C606.082 28.4028 608.435 30.7557 608.435 33.6475C608.435 36.5393 606.082 38.8921 603.19 38.8921V38.8908Z" fill="white"/>
<path d="M424.333 67.9401H422.167C419.274 67.9401 416.921 65.5872 416.921 62.6954C416.921 59.8037 419.274 57.4508 422.166 57.4508C422.238 57.4508 422.312 57.4521 422.384 57.4548C422.776 53.9347 425.769 51.1875 429.393 51.1875C432.069 51.1875 434.497 52.7096 435.685 55.0532C436.284 54.8074 436.927 54.68 437.583 54.68C439.79 54.68 441.717 56.1416 442.36 58.1908C442.494 58.179 442.628 58.1724 442.762 58.1724C445.255 58.1724 447.285 60.2006 447.285 62.6954H445.708C445.708 61.0721 444.387 59.7498 442.762 59.7498C442.494 59.7498 442.227 59.7866 441.969 59.8589C441.75 59.9193 441.516 59.8839 441.325 59.7577C441.135 59.6328 441.009 59.4317 440.977 59.2069C440.744 57.5257 439.285 56.2573 437.583 56.2573C436.922 56.2573 436.278 56.4466 435.723 56.8041C435.521 56.9342 435.27 56.9658 435.041 56.8882C434.812 56.8107 434.632 56.6332 434.552 56.4058C433.778 54.2278 431.705 52.7648 429.393 52.7648C426.375 52.7648 423.918 55.2202 423.918 58.2395C423.918 58.2658 423.918 58.292 423.918 58.3183C423.926 58.5615 423.821 58.7955 423.634 58.9506C423.448 59.1057 423.198 59.1662 422.96 59.1136C422.701 59.0557 422.434 59.0268 422.166 59.0268C420.143 59.0268 418.499 60.6725 418.499 62.6941C418.499 64.7158 420.144 66.3615 422.166 66.3615H424.333V67.9401Z" fill="white"/>
<path d="M107.687 67.1764H104.138C101.454 67.1764 99.2706 64.9931 99.2706 62.309C99.2706 59.7892 101.195 57.7098 103.652 57.4653C103.451 56.7423 103.349 55.9944 103.349 55.2307C103.349 50.6288 107.094 46.884 111.696 46.884C114.517 46.884 117.152 48.3364 118.681 50.6617C119.479 50.011 120.486 49.643 121.533 49.643C123.375 49.643 125.022 50.7826 125.705 52.4441C125.913 52.4165 126.122 52.4033 126.332 52.4033C128.951 52.4033 131.08 54.5327 131.08 57.1511H129.503C129.503 55.4029 128.081 53.9807 126.332 53.9807C126.016 53.9807 125.701 54.028 125.398 54.12C125.188 54.1844 124.959 54.1568 124.77 54.0451C124.58 53.9333 124.445 53.7467 124.399 53.5311C124.111 52.193 122.906 51.2216 121.535 51.2216C120.597 51.2216 119.709 51.6764 119.158 52.4375C118.995 52.6623 118.726 52.7858 118.448 52.7609C118.171 52.7359 117.928 52.5663 117.808 52.3166C116.687 49.9755 114.288 48.4639 111.697 48.4639C107.964 48.4639 104.928 51.5003 104.928 55.2333C104.928 56.1837 105.121 57.1025 105.501 57.9648C105.618 58.229 105.58 58.5365 105.404 58.7653C105.228 58.994 104.94 59.1083 104.655 59.0623C104.488 59.036 104.314 59.0216 104.139 59.0216C102.325 59.0216 100.849 60.4977 100.849 62.3116C100.849 64.1256 102.325 65.6017 104.139 65.6017H107.688V67.179L107.687 67.1764Z" fill="white"/>
<path d="M287.641 102.054H282.81V100.477H287.641C289.303 100.477 290.654 99.1254 290.654 97.4639C290.654 95.8024 289.303 94.4512 287.641 94.4512C287.426 94.4512 287.209 94.4749 287 94.5196C286.765 94.5708 286.519 94.5117 286.332 94.3579C286.146 94.2054 286.04 93.9754 286.044 93.7348C286.044 93.673 286.047 93.6086 286.047 93.5469C286.047 89.5352 282.783 86.2714 278.772 86.2714C275.023 86.2714 271.91 89.079 271.534 92.8029C271.508 93.0645 271.351 93.2971 271.119 93.4207C270.886 93.5442 270.607 93.5429 270.375 93.418C269.808 93.1131 269.167 92.9527 268.519 92.9527C266.843 92.9527 265.348 94.0161 264.8 95.5974C264.732 95.7959 264.586 95.9589 264.397 96.0496C264.207 96.1403 263.989 96.1521 263.792 96.0824C263.537 95.9917 263.266 95.947 262.989 95.947C261.646 95.947 260.552 97.0407 260.552 98.384H258.975C258.975 96.1705 260.775 94.3697 262.989 94.3697C263.191 94.3697 263.392 94.3842 263.591 94.4144C264.515 92.5702 266.414 91.3741 268.519 91.3741C269.066 91.3741 269.609 91.4556 270.129 91.6146C271.012 87.6042 274.561 84.6927 278.772 84.6927C283.426 84.6927 287.254 88.3035 287.598 92.8712C287.612 92.8712 287.627 92.8712 287.641 92.8712C290.172 92.8712 292.231 94.931 292.231 97.4613C292.231 99.9916 290.173 102.051 287.641 102.051V102.054Z" fill="white"/>
<path d="M495.226 144.266H493.025C491.026 144.266 489.4 142.64 489.4 140.641C489.4 138.642 491.026 137.016 493.025 137.016C493.254 137.016 493.481 137.038 493.705 137.08C494.058 134.51 496.269 132.524 498.936 132.524C501.603 132.524 503.584 134.283 504.097 136.674C504.189 136.666 504.281 136.662 504.373 136.662C506.046 136.662 507.408 138.024 507.408 139.697H505.831C505.831 138.894 505.177 138.239 504.373 138.239C504.159 138.239 503.952 138.285 503.759 138.376C503.518 138.489 503.238 138.472 503.012 138.334C502.786 138.195 502.646 137.952 502.638 137.687C502.575 135.678 500.949 134.104 498.936 134.104C496.924 134.104 495.233 135.766 495.233 137.807C495.233 137.915 495.239 138.021 495.248 138.126C495.276 138.421 495.135 138.706 494.885 138.865C494.635 139.023 494.317 139.028 494.062 138.878C493.749 138.694 493.392 138.597 493.026 138.597C491.897 138.597 490.979 139.516 490.979 140.645C490.979 141.774 491.897 142.693 493.026 142.693H495.227V144.27L495.226 144.266Z" fill="white"/>
<path d="M659.154 250.977H0.759277V252.554H659.154V250.977Z" fill="white"/>
</svg>
